<?xml version="1.0" encoding="utf-8"?>
<!-- Generator: Adobe Illustrator 15.0.0, SVG Export Plug-In . SVG Version: 6.00 Build 0)  -->
<!DOCTYPE svg PUBLIC "-//W3C//DTD SVG 1.1//EN" "http://www.w3.org/Graphics/SVG/1.1/DTD/svg11.dtd">
<svg version="1.1" id="Calque_1" xmlns="http://www.w3.org/2000/svg" xmlns:xlink="http://www.w3.org/1999/xlink" x="0px" y="0px"
	 width="800px" height="600px" viewBox="0 0 800 600" enable-background="new 0 0 800 600" xml:space="preserve">
<path fill="#2AB7CA" d="M412.188,251.975c27.609-55.931,85.22-94.4,151.819-94.4c93.44,0,169.2,75.75,169.2,169.2
	c0,7.529-0.49,14.949-1.45,22.22c-20.88,69.75-85.56,120.59-162.109,120.59c-30.82,0-59.71-8.239-84.601-22.64
	c20.04-11.59,37.48-27.18,51.23-45.67c43.34-13.061,74.91-53.29,74.91-100.891c0-47.609-31.57-87.84-74.91-100.899
	c-9.65-2.92-19.88-4.48-30.47-4.48C465.067,195.004,429.728,218.134,412.188,251.975z"/>
<path fill="#2296A5" d="M401.887,278.164c0.11-0.84,0.221-1.68,0.351-2.52c0.11-0.79,0.229-1.57,0.36-2.351
	c0.539-3.38,1.18-6.729,1.93-10.04c0.359-1.64,0.76-3.26,1.17-4.87v-0.01c0.18-0.689,0.36-1.39,0.55-2.08
	c0.18-0.689,0.37-1.38,0.57-2.069c0.37-1.33,0.76-2.65,1.17-3.971c0.22-0.729,0.45-1.46,0.7-2.189c0.21-0.681,0.439-1.36,0.67-2.03
	c0.229-0.68,0.46-1.35,0.7-2.02c0.229-0.681,0.479-1.351,0.72-2.021c0.22-0.6,0.45-1.2,0.68-1.79c0.521-1.39,1.07-2.77,1.641-4.15
	c0.449-1.09,0.909-2.18,1.38-3.26c0.21-0.49,0.43-0.979,0.649-1.46c1.141-2.569,2.351-5.1,3.62-7.59c0.37-0.729,0.75-1.46,1.14-2.19
	c0.021-0.039,0.04-0.09,0.07-0.13c0.34-0.649,0.69-1.3,1.05-1.949c0.431-0.811,0.88-1.61,1.341-2.41
	c0.289-0.53,0.59-1.05,0.899-1.57c0.75-1.3,1.521-2.58,2.311-3.86c0.689-1.119,1.399-2.239,2.119-3.35
	c1.57-2.42,3.2-4.79,4.891-7.11c0.41-0.569,0.819-1.13,1.24-1.689c0.409-0.561,0.829-1.12,1.26-1.67
	c3.17-4.16,6.53-8.17,10.069-12.011c0.421-0.46,0.851-0.909,1.28-1.369c3.66-3.891,7.51-7.61,11.521-11.141
	c0.5-0.439,0.989-0.87,1.489-1.29c1.061-0.92,2.131-1.81,3.21-2.689c0.421-0.351,0.83-0.681,1.25-1.011
	c2.461-1.979,4.99-3.899,7.57-5.739c0.67-0.471,1.34-0.94,2.01-1.4c0.771-0.54,1.54-1.07,2.33-1.59c0.69-0.46,1.38-0.92,2.08-1.37
	c0.851-0.55,1.7-1.09,2.561-1.62c0.75-0.47,1.5-0.93,2.26-1.38c0.78-0.47,1.56-0.93,2.35-1.39
	c24.891-14.4,53.78-22.641,84.601-22.641c93.45,0,169.2,75.761,169.2,169.2c0,16.9-2.48,33.221-7.091,48.62
	c0.96-7.271,1.45-14.69,1.45-22.22c0-93.45-75.76-169.2-169.2-169.2c-66.6,0-124.21,38.47-151.819,94.4
	c-0.011,0.04-0.04,0.079-0.061,0.119c-1.47,2.86-2.819,5.801-4.029,8.811c-0.08,0.17-0.15,0.35-0.221,0.53
	c-0.609,1.449-1.2,2.909-1.76,4.38C404.547,269.854,403.137,273.975,401.887,278.164z"/>
<path fill="#FED766" d="M315.837,446.944c39.15-22.641,68.38-60.52,79.59-105.53c1.761-7.069,3.08-14.319,3.91-21.72
	c0.63-5.42,0.99-10.92,1.08-16.48c0.01-0.729,0.021-1.47,0.021-2.199v-0.33c0.01-0.101,0.01-0.21,0.01-0.311v-0.53
	c0.06-11.79,2.05-23.119,5.68-33.68c0.54-1.6,1.13-3.17,1.75-4.729c0.07-0.181,0.141-0.36,0.221-0.53
	c1.26-2.98,2.609-5.92,4.029-8.811c0.021-0.04,0.05-0.079,0.061-0.119c17.54-33.841,52.88-56.971,93.62-56.971
	c10.59,0,20.819,1.561,30.47,4.48c20.97,28.17,33.37,63.08,33.37,100.89c0,37.82-12.4,72.73-33.37,100.9
	c-13.75,18.49-31.19,34.08-51.23,45.67c-8.34,4.83-17.13,8.96-26.29,12.32c-18.18,6.68-37.819,10.319-58.31,10.319
	C369.627,469.584,340.727,461.345,315.837,446.944z"/>
<path fill="#FED766" d="M231.237,300.374c0-37.81,12.399-72.72,33.37-100.89c13.75-18.49,31.189-34.07,51.229-45.67
	c8.94-5.17,18.39-9.55,28.26-13.021c17.63-6.229,36.591-9.62,56.351-9.62c30.82,0,59.71,8.24,84.6,22.641
	c-0.79,0.46-1.569,0.92-2.35,1.39c-0.76,0.45-1.51,0.91-2.26,1.38c-0.86,0.53-1.71,1.07-2.561,1.62c-0.7,0.45-1.39,0.91-2.08,1.37
	c-0.79,0.52-1.56,1.05-2.33,1.59c-0.67,0.46-1.34,0.93-2.01,1.4c-2.58,1.84-5.109,3.76-7.57,5.739c-0.42,0.33-0.829,0.66-1.25,1.011
	c-1.079,0.88-2.149,1.77-3.21,2.689c-0.5,0.42-0.989,0.851-1.489,1.29c-4.011,3.53-7.86,7.25-11.521,11.141
	c-0.43,0.46-0.859,0.909-1.28,1.369c-3.539,3.841-6.899,7.851-10.069,12.011c-0.431,0.55-0.851,1.109-1.26,1.67
	c-0.421,0.56-0.841,1.12-1.24,1.689c-1.69,2.32-3.32,4.69-4.891,7.11c-0.72,1.11-1.43,2.23-2.119,3.35
	c-0.79,1.28-1.561,2.561-2.311,3.86c-0.31,0.521-0.61,1.04-0.899,1.57c-0.461,0.8-0.91,1.6-1.341,2.41
	c-0.359,0.649-0.71,1.3-1.05,1.949c-0.03,0.04-0.05,0.091-0.07,0.13c-0.39,0.73-0.77,1.461-1.14,2.19
	c-1.27,2.49-2.479,5.021-3.62,7.59c-0.22,0.48-0.439,0.97-0.649,1.46c-0.471,1.08-0.931,2.17-1.38,3.26
	c-0.57,1.381-1.12,2.761-1.641,4.15c-0.229,0.59-0.46,1.19-0.68,1.79c-0.24,0.67-0.49,1.34-0.72,2.021
	c-0.24,0.67-0.471,1.34-0.7,2.02c-0.23,0.67-0.46,1.35-0.67,2.03c-0.25,0.729-0.48,1.46-0.7,2.189c-0.41,1.32-0.8,2.641-1.17,3.971
	c-0.2,0.689-0.391,1.38-0.57,2.069c-0.2,0.69-0.38,1.38-0.55,2.08v0.01c-0.42,1.61-0.811,3.24-1.17,4.87
	c-0.75,3.311-1.391,6.66-1.93,10.04c-0.131,0.78-0.25,1.561-0.36,2.351c-0.13,0.84-0.25,1.68-0.351,2.52
	c-0.01,0.01-0.01,0.021-0.01,0.03c-0.109,0.83-0.21,1.66-0.31,2.5c-0.01,0.1-0.021,0.2-0.03,0.3c-0.1,0.83-0.189,1.66-0.26,2.49
	c-0.101,0.89-0.18,1.78-0.25,2.68c-0.08,0.89-0.15,1.79-0.2,2.69c-0.07,0.899-0.12,1.8-0.16,2.699c-0.05,0.91-0.09,1.811-0.12,2.721
	c-0.029,0.84-0.06,1.689-0.069,2.54c-0.021,0.97-0.04,1.95-0.04,2.92v1.28c0,0.729-0.011,1.47-0.021,2.199
	c-0.03,0.99-0.069,1.98-0.12,2.971c-0.05,0.909-0.109,1.819-0.18,2.729c-0.02,0.26-0.05,0.521-0.07,0.771
	c-0.06,0.689-0.13,1.38-0.199,2.069c-0.03,0.32-0.07,0.65-0.11,0.96c-0.061,0.54-0.12,1.07-0.2,1.601
	c-0.06,0.479-0.12,0.95-0.2,1.42c-0.06,0.439-0.12,0.88-0.2,1.319c-0.06,0.41-0.13,0.82-0.199,1.23
	c-0.101,0.57-0.2,1.15-0.311,1.721c-0.069,0.379-0.14,0.75-0.22,1.129c-0.34,1.73-0.73,3.44-1.16,5.141
	c0,0.01-0.01,0.029-0.01,0.039c-0.73,2.171-1.51,4.311-2.34,6.441c-4.46,11.569-10.181,22.529-16.95,32.709
	c-0.01,0.01-0.021,0.03-0.03,0.041c-0.069,0.09-0.14,0.18-0.21,0.26c-0.5,0.64-1.01,1.26-1.52,1.879
	c-0.061,0.07-0.12,0.141-0.181,0.211c-0.51,0.619-1.04,1.229-1.58,1.84c-1.29,1.49-2.63,2.939-4.02,4.359
	c-0.3,0.311-0.601,0.61-0.9,0.9c-0.42,0.43-0.84,0.84-1.27,1.25c-0.11,0.109-0.221,0.21-0.33,0.32c-0.53,0.51-1.07,1.02-1.62,1.52
	c-0.24,0.221-0.48,0.44-0.73,0.66c-0.39,0.359-0.779,0.7-1.18,1.051c-0.3,0.27-0.61,0.529-0.92,0.789c-0.63,0.54-1.26,1.07-1.9,1.59
	c-0.55,0.45-1.1,0.891-1.66,1.32c-1.579,1.24-3.199,2.43-4.859,3.58c-0.42,0.3-0.851,0.59-1.28,0.87
	c-0.36,0.25-0.72,0.489-1.09,0.729c-0.44,0.291-0.88,0.57-1.32,0.851c-0.229,0.14-0.46,0.29-0.7,0.43
	c-0.47,0.3-0.939,0.591-1.42,0.88c-0.58,0.34-1.159,0.69-1.75,1.01c-0.229,0.15-0.47,0.28-0.72,0.42
	c-0.75,0.431-1.51,0.84-2.28,1.25c-0.859,0.461-1.739,0.91-2.619,1.351c-0.591,0.29-1.181,0.58-1.78,0.86
	c-0.76,0.359-1.521,0.709-2.29,1.05c-0.641,0.29-1.29,0.569-1.94,0.84c-0.239,0.101-0.479,0.2-0.729,0.3
	c-0.66,0.28-1.33,0.54-2,0.801c-0.931,0.359-1.86,0.709-2.811,1.039c-0.609,0.221-1.21,0.43-1.83,0.641
	c-0.109,0.029-0.22,0.07-0.34,0.109c-0.729,0.24-1.47,0.48-2.22,0.7c-1.74,0.53-3.5,1.021-5.28,1.46
	c-0.63,0.16-1.26,0.311-1.899,0.46c-0.24,0.06-0.49,0.11-0.74,0.171c-0.63,0.139-1.271,0.27-1.91,0.399
	c-0.95,0.2-1.92,0.38-2.89,0.55c-0.771,0.13-1.53,0.25-2.301,0.359c-0.119,0.031-0.25,0.051-0.369,0.061
	c-0.75,0.11-1.5,0.221-2.261,0.311c-0.77,0.1-1.54,0.189-2.31,0.26c-0.16,0.02-0.311,0.04-0.47,0.05
	c-0.811,0.08-1.62,0.149-2.44,0.21s-1.64,0.12-2.47,0.16c-0.12,0-0.23,0.01-0.351,0.02c-0.52,0.021-1.04,0.041-1.56,0.061
	c-0.15,0-0.31,0.01-0.46,0.01c-0.35,0.01-0.69,0.02-1.04,0.03c-0.7,0.01-1.4,0.021-2.1,0.021c-10.591,0-20.82-1.561-30.46-4.48
	C243.637,373.104,231.237,338.194,231.237,300.374z"/>
<path fill="#2AB7CA" d="M67.807,271.794c0-6.5,0.37-12.92,1.08-19.229c20.62-70.16,85.5-121.391,162.351-121.391
	c30.819,0,59.72,8.24,84.6,22.641c-20.04,11.6-37.479,27.18-51.229,45.67c-43.341,13.06-74.91,53.29-74.91,100.89
	c0,47.61,31.569,87.84,74.91,100.9c9.64,2.92,19.869,4.48,30.46,4.48c0.699,0,1.399-0.011,2.1-0.021
	c0.35-0.011,0.69-0.021,1.04-0.03c0.15,0,0.31-0.01,0.46-0.01c0.52-0.02,1.04-0.04,1.56-0.061c0.12-0.01,0.23-0.02,0.351-0.02
	c0.83-0.04,1.649-0.1,2.47-0.16s1.63-0.13,2.44-0.21c0.159-0.01,0.31-0.03,0.47-0.05c0.77-0.07,1.54-0.16,2.31-0.26
	c0.75-0.09,1.511-0.19,2.261-0.311c0.119-0.01,0.25-0.029,0.369-0.061c0.771-0.109,1.53-0.229,2.301-0.359
	c0.97-0.17,1.939-0.35,2.89-0.55c0.64-0.13,1.28-0.261,1.91-0.399c0.25-0.061,0.5-0.111,0.74-0.171c0.64-0.14,1.27-0.3,1.899-0.46
	c1.78-0.439,3.54-0.93,5.28-1.46c0.75-0.22,1.49-0.46,2.22-0.7c0.12-0.039,0.23-0.08,0.34-0.109c0.62-0.211,1.221-0.42,1.83-0.641
	c0.95-0.33,1.88-0.68,2.811-1.039c0.67-0.261,1.34-0.521,2-0.801c0.25-0.1,0.49-0.199,0.729-0.3c0.65-0.271,1.3-0.55,1.94-0.84
	c0.77-0.341,1.53-0.69,2.29-1.05c0.6-0.28,1.189-0.57,1.78-0.86c0.88-0.44,1.76-0.89,2.619-1.351c0.771-0.41,1.53-0.819,2.28-1.25
	c0.25-0.14,0.49-0.27,0.72-0.42c0.591-0.319,1.17-0.67,1.75-1.01c0.48-0.289,0.95-0.58,1.42-0.88c0.24-0.14,0.471-0.29,0.7-0.43
	c0.44-0.28,0.88-0.56,1.32-0.851c0.37-0.24,0.729-0.479,1.09-0.729c0.43-0.28,0.86-0.57,1.28-0.87c1.66-1.15,3.28-2.34,4.859-3.58
	c0.561-0.43,1.11-0.87,1.66-1.32c0.641-0.52,1.271-1.05,1.9-1.59c0.31-0.26,0.62-0.52,0.92-0.789c0.4-0.351,0.79-0.691,1.18-1.051
	c0.25-0.22,0.49-0.439,0.73-0.66c0.55-0.5,1.09-1.01,1.62-1.52c0.109-0.11,0.22-0.211,0.33-0.32c0.43-0.41,0.85-0.82,1.27-1.25
	c0.311-0.29,0.601-0.59,0.9-0.9c1.39-1.42,2.729-2.869,4.02-4.359c0.54-0.61,1.07-1.221,1.58-1.84
	c0.061-0.07,0.12-0.141,0.181-0.211c0.51-0.619,1.02-1.239,1.52-1.879c0.07-0.08,0.141-0.17,0.21-0.26
	c-30.33,45.51-82.12,75.489-140.91,75.489C143.557,440.994,67.807,365.244,67.807,271.794z"/>
<path fill="#2296A5" d="M68.887,252.564c-0.71,6.31-1.08,12.729-1.08,19.229c0,93.45,75.75,169.2,169.2,169.2
	c58.79,0,110.58-29.979,140.91-75.489c0.01-0.011,0.021-0.031,0.03-0.041c0.33-0.41,0.65-0.83,0.96-1.25
	c0.24-0.3,0.47-0.6,0.69-0.91c0.319-0.42,0.64-0.85,0.939-1.289c1.8-2.471,3.48-5.021,5.05-7.641c0.431-0.72,0.851-1.439,1.261-2.17
	c0.739-1.311,1.46-2.641,2.14-3.97c0.16-0.32,0.32-0.63,0.47-0.95c0.28-0.529,0.54-1.07,0.79-1.609c0.04-0.08,0.08-0.17,0.12-0.25
	c0.35-0.721,0.68-1.451,1-2.19c0.35-0.761,0.68-1.53,1-2.31c0.24-0.561,0.47-1.121,0.69-1.69c0.68-1.7,1.31-3.421,1.899-5.16v-0.011
	c0.07-0.209,0.141-0.42,0.21-0.629c0.2-0.61,0.4-1.23,0.59-1.851c0.051-0.149,0.091-0.29,0.13-0.44
	c0.2-0.629,0.391-1.27,0.561-1.909c0.16-0.521,0.3-1.05,0.43-1.58c0.13-0.44,0.25-0.89,0.36-1.341c0-0.01,0.01-0.029,0.01-0.039
	c0.75-2.18,1.44-4.36,2.09-6.58c-0.83,7.4-2.149,14.65-3.91,21.72c-11.21,45.011-40.439,82.89-79.59,105.53
	c-24.88,14.4-53.78,22.64-84.6,22.64c-93.45,0-169.2-75.76-169.2-169.21C62.037,283.774,64.427,267.725,68.887,252.564z"/>
</svg>
